:FULLY-SPECIFIED
:FORCE-ALL-JOINTS-BE-3DOF
:DEGREES
408
root 7.15854 13.795 -34.2327 159.29 75.17 153.077
lfemur 18.6017 -2.67497 -10.2864
ltibia 23.8573 -0 0
lfoot -23.3527 33.1801 4.44601e-05
ltoes -26.6879 0 0
rfemur -66.3078 -16.3594 8.29371
rtibia 79.2777 -0 0
rfoot -14.2232 13.2246 0.000373505
rtoes 10.138 -0 0
lowerback 8.42705 4.89375 -11.6961
upperback -2.56582 5.17544 -1.18202
thorax -8.46724 3.0915 4.40961
lowerneck 0.551486 -11.64 -11.3624
upperneck 3.21181 -15.8223 9.26888
head 2.50346 -7.90986 4.0223
lclavicle -4.1869e-14 -3.57812e-15 0
lhumerus -70.2189 -19.9748 106.459
lradius 100.279 -0 0
lwrist 51.0997 0 0
lhand -9.88683 42.9153 2.78706e-05
lfingers 7.12502 -0 0
lthumb 16.0926 72.2669 -3.07131e-05
rclavicle -4.1869e-14 -3.57812e-15 0
rhumerus 49.2425 -3.8547 -59.5451
rradius 19.9666 -0 0
rwrist 18.4295 0 0
rhand -21.6969 -33.1547 0.000162121
rfingers 7.12502 -0 0
rthumb 4.70145 -63.0825 0.000160385
409
root 7.16779 13.7915 -34.2408 159.294 75.1786 153.078
lfemur 18.6341 -2.66073 -10.2834
ltibia 23.8221 -0 0
lfoot -23.3567 33.1741 2.02687e-05
ltoes -26.7282 0 0
rfemur -66.3153 -16.3714 8.30187
rtibia 79.3023 -0 0
rfoot -14.2454 13.2155 0.000170275
rtoes 10.1491 -0 0
lowerback 8.41724 4.89201 -11.6951
upperback -2.569 5.17462 -1.17858
thorax -8.46461 3.09112 4.4146
lowerneck 0.553219 -11.6365 -11.366
upperneck 3.21674 -15.8188 9.26739
head 2.50468 -7.9078 4.02246
lclavicle -4.1869e-14 -3.57812e-15 0
lhumerus -70.2197 -19.9636 106.459
lradius 100.279 -0 0
lwrist 51.0973 0 0
lhand -9.8657 42.916 1.27058e-05
lfingers 7.12502 -0 0
lthumb 16.113 72.2661 -1.40016e-05
rclavicle -4.1869e-14 -3.57812e-15 0
rhumerus 49.2356 -3.83606 -59.5308
rradius 19.9718 -0 0
rwrist 18.3937 0 0
rhand -21.6862 -33.1466 7.39087e-05
rfingers 7.12502 -0 0
rthumb 4.71176 -63.0742 7.31169e-05
410
root 7.17705 13.7881 -34.249 159.296 75.1846 153.078
lfemur 18.654 -2.65197 -10.2814
ltibia 23.8005 -0 0
lfoot -23.3593 33.1699 3.46899e-06
ltoes -26.753 0 0
rfemur -66.3198 -16.3788 8.3069
rtibia 79.3174 -0 0
rfoot -14.259 13.21 4.35086e-05
rtoes 10.1559 -0 0
lowerback 8.4112 4.89094 -11.6945
upperback -2.57117 5.17406 -1.17623
thorax -8.46346 3.09095 4.41678
lowerneck 0.553975 -11.6349 -11.3675
upperneck 3.22011 -15.8164 9.26638
head 2.50468 -7.9078 4.02246
lclavicle -4.1869e-14 -3.57812e-15 0
lhumerus -70.2202 -19.9567 106.459
lradius 100.279 -0 0
lwrist 51.0973 0 0
lhand -9.8527 42.9165 3.24658e-06
lfingers 7.12502 -0 0
lthumb 16.1255 72.2656 -3.57769e-06
rclavicle -4.1869e-14 -3.57812e-15 0
rhumerus 49.2313 -3.82458 -59.522
rradius 19.9754 -0 0
rwrist 18.3717 0 0
rhand -21.6796 -33.1416 1.88851e-05
rfingers 7.12502 -0 0
rthumb 4.71811 -63.0691 1.86828e-05
411
root 7.1863 13.7847 -34.2571 159.297 75.1858 153.078
lfemur 18.6608 -2.64898 -10.2808
ltibia 23.7931 0 0
lfoot -23.3599 33.1691 0
ltoes -26.7615 0 0
rfemur -66.3214 -16.3813 8.30861
rtibia 79.3225 0 0
rfoot -14.2636 13.2081 0
rtoes 10.1582 0 0
lowerback 8.40914 4.89058 -11.6943
upperback -2.57162 5.17394 -1.17575
thorax -8.46346 3.09095 4.41678
lowerneck 0.553975 -11.6349 -11.3675
upperneck 3.2208 -15.8159 9.26617
head 2.50468 -7.9078 4.02246
lclavicle -4.1869e-14 -3.57812e-15 0
lhumerus -70.2204 -19.9544 106.459
lradius 100.279 0 0
lwrist 51.0973 0 0
lhand -9.84827 42.9166 0
lfingers 7.12502 0 0
lthumb 16.1298 72.2654 0
rclavicle -4.1869e-14 -3.57812e-15 0
rhumerus 49.2299 -3.82067 -59.519
rradius 19.9761 0 0
rwrist 18.3642 0 0
rhand -21.6774 -33.1399 0
rfingers 7.12502 0 0
rthumb 4.72027 -63.0674 0
412
root 7.12532 13.7941 -34.2774 159.349 75.1863 153.138
lfemur 18.6109 -2.6697 -10.2799
ltibia 23.874 -0 0
lfoot -23.3584 33.1555 -0.000102363
ltoes -26.7224 0 0
rfemur -66.2996 -16.364 8.30061
rtibia 79.281 -0 0
rfoot -14.2373 13.1975 -0.00139581
rtoes 10.1267 -0 0
lowerback 8.42147 4.88642 -11.6841
upperback -2.56654 5.16864 -1.16954
thorax -8.46381 3.08786 4.41858
lowerneck 0.559641 -11.6383 -11.3691
upperneck 3.21447 -15.8211 9.27516
head 2.50342 -7.91044 4.02557
lclavicle 6.54499e-14 -1.98785e-15 0
lhumerus -70.2023 -19.9927 106.457
lradius 100.301 -0 0
lwrist 51.087 0 0
lhand -9.8436 42.9158 -1.85936e-05
lfingers 7.12502 -0 0
lthumb 16.1343 72.2642 -2.67782e-05
rclavicle 6.54499e-14 -1.98785e-15 0
rhumerus 49.2013 -3.81662 -59.4862
rradius 20.0423 -0 0
rwrist 18.2696 0 0
rhand -21.649 -33.1586 -0.00265128
rfingers 7.12502 -0 0
rthumb 4.74761 -63.0844 -0.00232341
413
root 7.06435 13.8034 -34.2977 159.502 75.1875 153.315
lfemur 18.4645 -2.73048 -10.2771
ltibia 24.1115 -0 0
lfoot -23.354 33.1154 -0.000400611
ltoes -26.7559 0 0
rfemur -66.2356 -16.3131 8.27719
rtibia 79.1592 -0 0
rfoot -14.1602 13.1663 -0.00546279
rtoes 10.0344 -0 0
lowerback 8.45765 4.87419 -11.6543
upperback -2.55163 5.1531 -1.15131
thorax -8.46483 3.07881 4.42388
lowerneck 0.576266 -11.6481 -11.3736
upperneck 3.19591 -15.8363 9.30154
head 2.4997 -7.9182 4.0347
lclavicle 6.54499e-14 -1.98785e-15 0
lhumerus -70.149 -20.1049 106.451
lradius 100.323 -0 0
lwrist 51.0567 0 0
lhand -9.82989 42.9134 -7.27678e-05
lfingers 7.12502 -0 0
lthumb 16.1475 72.2607 -0.000104799
rclavicle 6.54499e-14 -1.98785e-15 0
rhumerus 49.1174 -3.80464 -59.39
rradius 20.2367 -0 0
rwrist 17.9922 0 0
rhand -21.5659 -33.2133 -0.0103765
rfingers 7.12502 -0 0
rthumb 4.82784 -63.1342 -0.00909327
414
root 7.00337 13.8128 -34.318 159.75 75.1893 153.602
lfemur 18.2264 -2.82926 -10.2722
ltibia 24.4974 -0 0
lfoot -23.3468 33.0504 -0.000878766
ltoes -26.7491 0 0
rfemur -66.1317 -16.2304 8.23926
rtibia 78.9612 -0 0
rfoot -14.0349 13.1155 -0.0119835
rtoes 9.88432 -0 0
lowerback 8.51644 4.85427 -11.6058
upperback -2.52742 5.12782 -1.12169
thorax -8.46648 3.0641 4.43249
lowerneck 0.60329 -11.6642 -11.3811
upperneck 3.16572 -15.8611 9.34443
head 2.49367 -7.93081 4.04953
lclavicle 6.54499e-14 -1.98785e-15 0
lhumerus -70.0623 -20.2874 106.441
lradius 100.286 -0 0
lwrist 51.0075 0 0
lhand -9.80761 42.9096 -0.000159619
lfingers 7.12502 -0 0
lthumb 16.1689 72.255 -0.00022988
rclavicle 6.54499e-14 -1.98785e-15 0
rhumerus 48.9811 -3.78488 -59.2337
rradius 20.5526 -0 0
rwrist 17.5412 0 0
rhand -21.4306 -33.3024 -0.0227631
rfingers 7.12502 -0 0
rthumb 4.95824 -63.2152 -0.0199478
415
root 6.94239 13.8222 -34.3383 160.089 75.1912 153.993
lfemur 17.9018 -2.96395 -10.2649
ltibia 25.0237 -0 0
lfoot -23.3369 32.9616 -0.00151777
ltoes -26.7398 0 0
rfemur -65.9902 -16.1175 8.1878
rtibia 78.6912 -0 0
rfoot -13.864 13.0463 -0.0206985
rtoes 9.67963 -0 0
lowerback 8.59659 4.82703 -11.5397
upperback -2.49441 5.09332 -1.08132
thorax -8.46875 3.04403 4.44423
lowerneck 0.640155 -11.686 -11.3913
upperneck 3.1245 -15.8948 9.40297
head 2.48543 -7.94801 4.06977
lclavicle 6.54499e-14 -1.98785e-15 0
lhumerus -69.9438 -20.5363 106.427
lradius 100.291 -0 0
lwrist 50.9405 0 0
lhand -9.77722 42.9044 -0.000275683
lfingers 7.12502 -0 0
lthumb 16.1982 72.2472 -0.000397033
rclavicle 6.54499e-14 -1.98785e-15 0
rhumerus 48.7953 -3.75732 -59.0205
rradius 20.9835 -0 0
rwrist 16.9261 0 0
rhand -21.2461 -33.4239 -0.0393188
rfingers 7.12502 -0 0
rthumb 5.13613 -63.3257 -0.0344556
